<svg width="30" height="30" viewBox="0 0 30 30" fill="none" xmlns="http://www.w3.org/2000/svg">
<rect width="30" height="30" rx="2" fill="black"/>
<path d="M24.0295 5.91663H6.97116C6.69158 5.91663 6.42345 6.02769 6.22575 6.22538C6.02806 6.42308 5.91699 6.69121 5.91699 6.97079V24.0291C5.91699 24.3087 6.02806 24.5768 6.22575 24.7745C6.42345 24.9722 6.69158 25.0833 6.97116 25.0833H16.152V17.6562H13.6603V14.7812H16.152V12.625C16.1004 12.1187 16.1601 11.6073 16.3271 11.1266C16.494 10.646 16.7641 10.2076 17.1184 9.84235C17.4727 9.4771 17.9026 9.19378 18.378 9.01227C18.8534 8.83076 19.3628 8.75545 19.8703 8.79163C20.6162 8.78648 21.3618 8.82487 22.1032 8.90663V11.4941H20.5795C19.372 11.4941 19.142 12.0691 19.142 12.9029V14.7525H22.017L21.6432 17.6275H19.142V25.0833H24.0295C24.1679 25.0833 24.305 25.056 24.4329 25.003C24.5608 24.9501 24.677 24.8724 24.7749 24.7745C24.8728 24.6766 24.9504 24.5604 25.0034 24.4325C25.0564 24.3046 25.0837 24.1676 25.0837 24.0291V6.97079C25.0837 6.83236 25.0564 6.69528 25.0034 6.56738C24.9504 6.43948 24.8728 6.32327 24.7749 6.22538C24.677 6.1275 24.5608 6.04985 24.4329 5.99687C24.305 5.94389 24.1679 5.91663 24.0295 5.91663Z" fill="white"/>
</svg>
