<svg width="139" height="50" viewBox="0 0 139 50" fill="none" xmlns="http://www.w3.org/2000/svg">
<rect width="138.559" height="49.7998" rx="6" fill="white"/>
<path d="M62.9753 36.4976C62.9753 38.3189 64.136 39.5397 65.7771 39.5397C67.4182 39.5397 68.579 38.3189 68.579 36.4976V21.1074H70.1801C71.621 21.1074 72.8618 20.4269 72.8618 18.7058C72.8618 16.9646 71.621 16.3042 70.1801 16.3042H68.579V13.042C68.579 11.2208 67.4182 10 65.7771 10C64.136 10 62.9753 11.2208 62.9753 13.042V16.3042H61.7344C60.3335 16.3042 59.2728 17.3249 59.2728 18.7058C59.2728 20.1868 60.2134 21.1074 61.7344 21.1074H62.9753V36.4976ZM24.8899 12.982C24.8899 11.0807 23.6491 10.02 21.968 10.02C20.2868 10.02 19.046 11.0807 19.046 12.982V31.3342C19.046 32.555 19.046 34.5363 16.8646 34.5363C15.1034 34.5363 13.7425 33.1354 12.1815 33.1354C10.9006 33.1354 10 34.4363 10 35.4569C10 38.7591 14.483 39.7998 17.1848 39.7998C20.7271 39.7998 24.9099 38.1187 24.9099 31.7345V12.982H24.8899ZM26.451 31.7745C26.451 36.6377 29.7732 39.7598 35.6971 39.7598C41.621 39.7598 44.9433 36.6377 44.9433 31.7745V21.8879C44.9433 20.0667 43.7825 18.8459 42.1414 18.8459C40.5003 18.8459 39.3395 20.0667 39.3395 21.8879V31.6544C39.3395 33.9359 37.5784 35.1968 35.7171 35.1968C33.8359 35.1968 32.0947 33.9359 32.0947 31.6544V21.8879C32.0947 20.0667 30.9339 18.8459 29.2928 18.8459C27.6518 18.8459 26.491 20.0667 26.491 21.8879V31.7745H26.451ZM60.6737 22.5884C60.6737 23.8492 59.6931 25.03 58.3722 25.03C57.3115 25.03 55.1701 23.4289 53.3489 23.4289C52.3282 23.4289 51.4476 23.8892 51.4476 24.95C51.4476 27.4916 61.1941 27.1114 61.1941 33.3555C61.1941 36.998 58.032 39.7998 53.2088 39.7998C50.0467 39.7998 45.3635 38.0387 45.3635 35.577C45.3635 34.7365 46.2241 33.1354 47.7852 33.1354C49.9666 33.1354 50.9473 34.9966 53.589 34.9966C55.3102 34.9966 55.8105 34.4563 55.8105 33.4356C55.8105 30.9339 46.064 31.3142 46.064 25.03C46.064 21.2275 49.2261 18.6458 53.6691 18.6458C56.4309 18.6257 60.6737 19.8866 60.6737 22.5884Z" fill="#1274C0"/>
<path d="M122.876 36.5077C122.876 38.3289 124.056 39.5497 125.717 39.5497C127.379 39.5497 128.559 38.3289 128.559 36.5077V13.0721C128.559 11.2508 127.379 10.03 125.717 10.03C124.056 10.03 122.876 11.2508 122.876 13.0721V36.5077ZM93.0958 13.0721C93.0958 11.2508 91.915 10.03 90.2539 10.03C88.5928 10.03 87.412 11.2508 87.412 13.0721V20.517C85.911 19.2562 83.9897 18.6157 82.0084 18.6157C75.9043 18.6157 72.8623 24.1394 72.8623 29.463C72.8623 34.6264 76.4847 39.7698 82.2085 39.7698C84.1498 39.7698 86.3513 38.9293 87.412 37.2481C87.7722 38.6891 88.6728 39.5297 90.2539 39.5297C91.915 39.5297 93.0958 38.3089 93.0958 36.4876V13.0721ZM87.412 29.0427C87.412 31.7045 86.0711 34.7465 82.949 34.7465C79.9871 34.7465 78.5261 31.7845 78.5261 29.2228C78.5261 26.6411 79.9871 23.6391 82.949 23.6391C85.991 23.6391 87.412 26.3809 87.412 29.0427ZM94.6568 36.5077C94.6568 38.3289 95.8376 39.5497 97.4987 39.5497C99.1598 39.5497 100.341 38.3289 100.341 36.5077V21.8979C100.341 20.0767 99.1598 18.8559 97.4987 18.8559C95.8376 18.8559 94.6568 20.0767 94.6568 21.8979V36.5077ZM97.4987 10.6304C95.7976 10.6304 94.2966 12.0714 94.2966 13.6324C94.2966 15.3135 95.7976 16.7945 97.4987 16.7945C99.2799 16.7945 100.701 15.3536 100.701 13.6324C100.701 12.0514 99.1998 10.6304 97.4987 10.6304ZM121.315 22.4183C121.315 21.0173 121.315 18.8359 118.593 18.8359C117.212 18.8359 116.031 19.7965 115.871 21.1174C114.61 19.3963 112.549 18.6157 110.467 18.6157C105.264 18.6157 101.081 23.2188 101.081 29.2228C101.081 35.3869 105.144 39.7698 110.467 39.7698C112.629 39.7698 114.41 38.8892 115.871 37.2081C116.271 38.6491 116.932 39.5297 118.593 39.5297C121.315 39.5297 121.315 37.3482 121.315 35.9473V22.4183ZM106.765 29.2428C106.765 26.6211 108.146 23.6591 111.268 23.6591C114.27 23.6591 115.651 26.6211 115.651 29.2428C115.651 31.8646 114.23 34.7665 111.268 34.7665C108.186 34.7465 106.765 31.8646 106.765 29.2428Z" fill="#FF6C00"/>
</svg>
