<svg width="30" height="30" viewBox="0 0 30 30" fill="none" xmlns="http://www.w3.org/2000/svg">
<rect width="30" height="30" rx="2" fill="black"/>
<path d="M22 6C22.5304 6 23.0391 6.21071 23.4142 6.58579C23.7893 6.96086 24 7.46957 24 8V22C24 22.5304 23.7893 23.0391 23.4142 23.4142C23.0391 23.7893 22.5304 24 22 24H8C7.46957 24 6.96086 23.7893 6.58579 23.4142C6.21071 23.0391 6 22.5304 6 22V8C6 7.46957 6.21071 6.96086 6.58579 6.58579C6.96086 6.21071 7.46957 6 8 6H22ZM21.5 21.5V16.2C21.5 15.3354 21.1565 14.5062 20.5452 13.8948C19.9338 13.2835 19.1046 12.94 18.24 12.94C17.39 12.94 16.4 13.46 15.92 14.24V13.13H13.13V21.5H15.92V16.57C15.92 15.8 16.54 15.17 17.31 15.17C17.6813 15.17 18.0374 15.3175 18.2999 15.5801C18.5625 15.8426 18.71 16.1987 18.71 16.57V21.5H21.5ZM9.88 11.56C10.3256 11.56 10.7529 11.383 11.0679 11.0679C11.383 10.7529 11.56 10.3256 11.56 9.88C11.56 8.95 10.81 8.19 9.88 8.19C9.43178 8.19 9.00193 8.36805 8.68499 8.68499C8.36805 9.00193 8.19 9.43178 8.19 9.88C8.19 10.81 8.95 11.56 9.88 11.56ZM11.27 21.5V13.13H8.5V21.5H11.27Z" fill="white"/>
</svg>
