<svg width="30" height="30" viewBox="0 0 30 30" fill="none" xmlns="http://www.w3.org/2000/svg">
<rect width="30" height="30" rx="2" fill="black"/>
<path d="M8.71429 6.3125C7.21719 6.3125 6 7.48965 6 8.9375V22.0625C6 23.5104 7.21719 24.6875 8.71429 24.6875H22.2857C23.7828 24.6875 25 23.5104 25 22.0625V8.9375C25 7.48965 23.7828 6.3125 22.2857 6.3125H8.71429ZM20.8989 13.1744C20.8989 16.7305 18.0998 20.8279 12.985 20.8279C11.4074 20.8279 9.9442 20.385 8.71429 19.6221C8.93906 19.6467 9.15536 19.6549 9.38438 19.6549C10.6864 19.6549 11.8824 19.2283 12.8366 18.5064C11.6152 18.4818 10.5888 17.7066 10.2368 16.6402C10.6652 16.7018 11.0511 16.7018 11.4922 16.591C10.2199 16.3408 9.26562 15.258 9.26562 13.9496V13.9168C9.6346 14.1178 10.0672 14.2408 10.521 14.2572C10.1393 14.0111 9.82545 13.6789 9.60915 13.2893C9.39286 12.8996 9.27835 12.4607 9.28259 12.0178C9.28259 11.5174 9.4183 11.058 9.66004 10.6602C11.0299 12.2926 13.0868 13.359 15.394 13.4738C14.9996 11.6486 16.4118 10.168 18.1083 10.168C18.9098 10.168 19.6308 10.492 20.1397 11.017C20.7674 10.9021 21.3696 10.6766 21.904 10.3689C21.6962 10.9924 21.2594 11.5174 20.6826 11.8496C21.2424 11.7922 21.7853 11.6404 22.2857 11.4313C21.9083 11.9686 21.4333 12.4443 20.8904 12.8258C20.8989 12.9406 20.8989 13.0596 20.8989 13.1744Z" fill="white"/>
</svg>
