<svg width="30" height="30" viewBox="0 0 30 30" fill="none" xmlns="http://www.w3.org/2000/svg">
<rect width="30" height="30" rx="2" fill="black"/>
<path d="M25.0741 10.2742C25.0652 9.86307 25.0322 9.45284 24.9754 9.04558C24.9067 8.6834 24.7897 8.33207 24.6275 8.001C24.2729 7.30063 23.7042 6.7316 23.0041 6.37663C22.6751 6.21536 22.326 6.09869 21.9662 6.02971C21.5558 5.97186 21.1424 5.93826 20.728 5.92908C20.5527 5.92238 20.3255 5.9195 20.2201 5.9195L10.7825 5.91663C10.677 5.91663 10.4499 5.9195 10.2745 5.92621C9.86343 5.93512 9.4532 5.96808 9.04595 6.02492C8.68376 6.09363 8.33243 6.21063 8.00137 6.37279C7.301 6.72735 6.73196 7.29605 6.37699 7.99621C6.21573 8.32521 6.09906 8.67424 6.03008 9.03408C5.9719 9.44445 5.93798 9.85789 5.92849 10.2723C5.92274 10.4476 5.91891 10.6748 5.91891 10.7802L5.91699 20.2178C5.91699 20.3233 5.91987 20.5504 5.92658 20.7257C5.93549 21.1369 5.96845 21.5471 6.02528 21.9543C6.094 22.3165 6.211 22.6679 6.37316 22.9989C6.72772 23.6993 7.29641 24.2683 7.99658 24.6233C8.32557 24.7846 8.67461 24.9012 9.03445 24.9702C9.44484 25.0281 9.85828 25.0617 10.2726 25.0708C10.448 25.0775 10.6751 25.0804 10.7805 25.0804L20.2182 25.0823C20.3236 25.0823 20.5507 25.0795 20.7261 25.0728C21.1372 25.0638 21.5474 25.0309 21.9547 24.974C22.3169 24.9053 22.6682 24.7883 22.9993 24.6262C23.7 24.2718 24.2694 23.7031 24.6246 23.0028C24.7859 22.6738 24.9025 22.3247 24.9715 21.9649C25.0297 21.5545 25.0636 21.1411 25.0731 20.7267C25.0789 20.5513 25.0827 20.3242 25.0827 20.2188L25.0837 10.7821C25.0837 10.6767 25.0808 10.4495 25.0741 10.2742ZM15.7083 22.1671H15.7054C14.5645 22.1679 13.4418 21.8819 12.4404 21.3353L8.81787 22.285L9.7877 18.7458C9.0368 17.4428 8.73677 15.9284 8.93411 14.4375C9.13146 12.9466 9.81516 11.5625 10.8792 10.4997C11.9433 9.4369 13.3282 8.75485 14.8194 8.55927C16.3105 8.3637 17.8245 8.66554 19.1266 9.41799C20.4288 10.1704 21.4463 11.3315 22.0214 12.721C22.5966 14.1106 22.6972 15.6511 22.3077 17.1037C21.9183 18.5563 21.0604 19.8399 19.8672 20.7553C18.6741 21.6708 17.2122 22.167 15.7083 22.1671Z" fill="white"/>
<path d="M15.711 9.65513C14.6962 9.65484 13.6999 9.92641 12.8256 10.4416C11.9513 10.9568 11.231 11.6969 10.7396 12.5847C10.2482 13.4726 10.0037 14.476 10.0314 15.4904C10.0591 16.5048 10.3581 17.4932 10.8973 18.353L11.0324 18.5676L10.4584 20.6625L12.6079 20.099L12.8149 20.2217C13.6896 20.7407 14.6881 21.0142 15.7052 21.0133H15.7081C17.2144 21.0136 18.6592 20.4154 19.7245 19.3505C20.7898 18.2855 21.3884 16.841 21.3886 15.3347C21.3889 13.8284 20.7908 12.3837 19.7258 11.3184C18.6609 10.2531 17.2164 9.65443 15.71 9.65417L15.711 9.65513ZM19.0498 17.7722C18.9244 17.9798 18.7573 18.1591 18.559 18.2989C18.3607 18.4386 18.1356 18.5356 17.8979 18.5839C17.5392 18.6456 17.171 18.6226 16.8227 18.5168C16.4922 18.4144 16.1675 18.2941 15.85 18.1565C14.6709 17.5648 13.666 16.6768 12.9337 15.5795C12.5341 15.0717 12.2917 14.4581 12.2361 13.8143C12.2317 13.5486 12.2825 13.2849 12.3855 13.0399C12.4884 12.7949 12.6412 12.574 12.8341 12.3912C12.8913 12.3263 12.9612 12.2739 13.0395 12.2371C13.1178 12.2004 13.2028 12.1801 13.2893 12.1775C13.4024 12.1775 13.5164 12.1775 13.6161 12.1832C13.7215 12.188 13.8614 12.143 13.9994 12.4765C14.1432 12.8176 14.4843 13.6581 14.5265 13.7434C14.5534 13.7882 14.5688 13.8389 14.5713 13.8911C14.5738 13.9432 14.5634 13.9952 14.5409 14.0424C14.4981 14.145 14.4406 14.2409 14.3703 14.327C14.284 14.4267 14.1911 14.5493 14.1144 14.626C14.0282 14.7113 13.94 14.8033 14.0387 14.9739C14.2955 15.4126 14.6155 15.8111 14.9884 16.1565C15.3939 16.516 15.8585 16.8026 16.3617 17.0036C16.5323 17.0899 16.632 17.0745 16.7316 16.9605C16.8313 16.8465 17.1581 16.4622 17.2721 16.2916C17.3862 16.121 17.4992 16.1498 17.6555 16.2063C17.8117 16.2628 18.6521 16.6759 18.8227 16.7621C18.9933 16.8484 19.1073 16.8896 19.1495 16.9605C19.1956 17.235 19.1609 17.517 19.0498 17.7722Z" fill="white"/>
</svg>
