<svg width="46" height="46" viewBox="0 0 46 46" fill="none" xmlns="http://www.w3.org/2000/svg">
<path d="M19.1663 28.75L29.1138 23L19.1663 17.25V28.75ZM41.323 13.7425C41.5722 14.6434 41.7447 15.8509 41.8597 17.3842C41.9938 18.9175 42.0513 20.24 42.0513 21.39L42.1663 23C42.1663 27.1975 41.8597 30.2834 41.323 32.2575C40.8438 33.9825 39.7322 35.0942 38.0072 35.5734C37.1063 35.8225 35.458 35.995 32.928 36.11C30.4363 36.2442 28.1555 36.3017 26.0472 36.3017L22.9997 36.4167C14.9688 36.4167 9.96634 36.11 7.99217 35.5734C6.26717 35.0942 5.15551 33.9825 4.67634 32.2575C4.42717 31.3567 4.25467 30.1492 4.13967 28.6159C4.00551 27.0825 3.94801 25.76 3.94801 24.61L3.83301 23C3.83301 18.8025 4.13967 15.7167 4.67634 13.7425C5.15551 12.0175 6.26717 10.9059 7.99217 10.4267C8.89301 10.1775 10.5413 10.005 13.0713 9.89004C15.563 9.75587 17.8438 9.69837 19.9522 9.69837L22.9997 9.58337C31.0305 9.58337 36.033 9.89004 38.0072 10.4267C39.7322 10.9059 40.8438 12.0175 41.323 13.7425Z" fill="white"/>
</svg>
